<svg width="72" height="60" viewBox="0 0 72 60" fill="none" xmlns="http://www.w3.org/2000/svg">
<rect width="72" height="60" fill="white"/>
<path d="M44.8401 12.6099C44.3294 12.0989 43.7229 11.6935 43.0555 11.417C42.388 11.1404 41.6726 10.998 40.9501 10.998C40.2276 10.998 39.5122 11.1404 38.8448 11.417C38.1773 11.6935 37.5709 12.0989 37.0601 12.6099L36.0001 13.6699L34.9401 12.6099C33.9084 11.5782 32.5092 10.9986 31.0501 10.9986C29.5911 10.9986 28.1918 11.5782 27.1601 12.6099C26.1284 13.6416 25.5488 15.0408 25.5488 16.4999C25.5488 17.9589 26.1284 19.3582 27.1601 20.3899L36.0001 29.2299L44.8401 20.3899C45.3511 19.8791 45.7565 19.2727 46.033 18.6052C46.3096 17.9378 46.4519 17.2224 46.4519 16.4999C46.4519 15.7774 46.3096 15.062 46.033 14.3945C45.7565 13.7271 45.3511 13.1206 44.8401 12.6099Z" stroke="#B3B3B3" stroke-width="2.5" stroke-linecap="round" stroke-linejoin="round"/>
<path d="M33.0084 39.893H33.6794V40.762C33.6794 41.07 33.6464 41.3963 33.5804 41.741C33.5144 42.0783 33.4118 42.4083 33.2724 42.731C33.1331 43.0463 32.9498 43.3397 32.7224 43.611C32.5024 43.8823 32.2311 44.106 31.9084 44.282L31.4244 43.611C31.7104 43.4643 31.9524 43.2773 32.1504 43.05C32.3484 42.8227 32.5098 42.5807 32.6344 42.324C32.7591 42.06 32.8508 41.796 32.9094 41.532C32.9754 41.2607 33.0084 41.004 33.0084 40.762V39.893ZM33.2174 39.893H33.8664V40.762C33.8664 40.9747 33.8884 41.213 33.9324 41.477C33.9764 41.741 34.0498 42.0123 34.1524 42.291C34.2551 42.5623 34.3981 42.819 34.5814 43.061C34.7648 43.303 34.9958 43.512 35.2744 43.688L34.8564 44.381C34.5264 44.183 34.2551 43.9373 34.0424 43.644C33.8298 43.3507 33.6648 43.0353 33.5474 42.698C33.4301 42.3607 33.3458 42.0233 33.2944 41.686C33.2431 41.3487 33.2174 41.0407 33.2174 40.762V39.893ZM35.8354 39.893H36.4954V40.762C36.4954 41.0627 36.4698 41.3817 36.4184 41.719C36.3671 42.0563 36.2828 42.3937 36.1654 42.731C36.0481 43.0683 35.8794 43.38 35.6594 43.666C35.4468 43.952 35.1791 44.1903 34.8564 44.381L34.4384 43.688C34.7171 43.5193 34.9444 43.3177 35.1204 43.083C35.3038 42.841 35.4468 42.5843 35.5494 42.313C35.6521 42.0417 35.7254 41.774 35.7694 41.51C35.8134 41.2387 35.8354 40.9893 35.8354 40.762V39.893ZM36.0444 39.893H36.7154V40.762C36.7154 41.092 36.7668 41.4403 36.8694 41.807C36.9794 42.1663 37.1481 42.5073 37.3754 42.83C37.6101 43.1527 37.9144 43.413 38.2884 43.611L37.8154 44.282C37.3828 44.0473 37.0344 43.7357 36.7704 43.347C36.5138 42.9583 36.3268 42.5367 36.2094 42.082C36.0994 41.6273 36.0444 41.1873 36.0444 40.762V39.893ZM31.7654 39.596H34.6144V40.344H31.7654V39.596ZM35.0984 39.596H37.9034V40.344H35.0984V39.596ZM38.8384 38.903H39.7514V44.733H38.8384V38.903ZM33.1624 45.283H39.7514V48.726H33.1624V45.283ZM38.8604 46.009H34.0534V47.978H38.8604V46.009Z" fill="#B3B3B3"/>
</svg>
