<svg width="72" height="60" viewBox="0 0 72 60" fill="none" xmlns="http://www.w3.org/2000/svg">
<rect width="72" height="60" fill="white"/>
<path fill-rule="evenodd" clip-rule="evenodd" d="M46 25.4596C46 26.6638 45.5137 27.8187 44.6482 28.6702C43.7826 29.5216 42.6087 30 41.3846 30H30.6154C29.3913 30 28.2174 29.5216 27.3518 28.6702C26.4863 27.8187 26 26.6638 26 25.4596V18.6143C26 17.9191 26.1624 17.2332 26.4744 16.6095C26.7865 15.9858 27.24 15.4409 27.8 15.0168L33.1846 10.9426C33.9917 10.3314 34.9815 10 36 10C37.0185 10 38.0083 10.3314 38.8154 10.9426L44.2 15.0168C44.7602 15.441 45.2138 15.9862 45.5259 16.6102C45.838 17.2342 46.0002 17.9203 46 18.6158V25.4596ZM38.3077 22.4327C38.3077 22.232 38.2266 22.0396 38.0824 21.8976C37.9381 21.7557 37.7425 21.676 37.5385 21.676H34.4615C34.2575 21.676 34.0619 21.7557 33.9176 21.8976C33.7734 22.0396 33.6923 22.232 33.6923 22.4327V27.7298H38.3077V22.4327Z" fill="#FFB800"/>
<path d="M32.5904 45.888H39.3774V48.726H32.5904V45.888ZM38.4864 46.581H33.4814V48.022H38.4864V46.581ZM31.9634 39.728H39.9604V40.443H31.9634V39.728ZM35.9784 40.839C37.0124 40.839 37.8044 40.96 38.3544 41.202C38.9118 41.4367 39.1904 41.785 39.1904 42.247C39.1904 42.709 38.9118 43.061 38.3544 43.303C37.8044 43.5377 37.0124 43.655 35.9784 43.655C34.9591 43.655 34.1671 43.5377 33.6024 43.303C33.0451 43.061 32.7664 42.709 32.7664 42.247C32.7664 41.785 33.0451 41.4367 33.6024 41.202C34.1671 40.96 34.9591 40.839 35.9784 40.839ZM35.9784 41.477C35.2671 41.477 34.7134 41.543 34.3174 41.675C33.9288 41.807 33.7344 41.9977 33.7344 42.247C33.7344 42.4963 33.9288 42.687 34.3174 42.819C34.7134 42.951 35.2671 43.017 35.9784 43.017C36.6971 43.017 37.2508 42.951 37.6394 42.819C38.0281 42.687 38.2224 42.4963 38.2224 42.247C38.2224 41.9977 38.0281 41.807 37.6394 41.675C37.2508 41.543 36.6971 41.477 35.9784 41.477ZM35.5274 38.76H36.4404V40.19H35.5274V38.76ZM31.4904 44.403H40.4774V45.129H31.4904V44.403ZM35.5274 43.424H36.4404V44.81H35.5274V43.424Z" fill="#FFB800"/>
</svg>
