<svg width="72" height="60" viewBox="0 0 72 60" fill="none" xmlns="http://www.w3.org/2000/svg">
<rect width="72" height="60" fill="white"/>
<path fill-rule="evenodd" clip-rule="evenodd" d="M46 18.4C46 23.84 42.8215 26.36 40.5692 28.1456C39.5938 28.9216 38.7908 29.5568 38.5 30.2336C38.0846 31.2 37.2123 32 36 32C34.7877 32 33.9169 31.2 33.5 30.2336C33.2077 29.5568 32.4077 28.9216 31.4292 28.1456C29.1785 26.36 26 23.8384 26 18.4C26 15.6417 27.0536 12.9965 28.9289 11.0461C30.8043 9.09571 33.3478 8 36 8C38.6522 8 41.1957 9.09571 43.0711 11.0461C44.9464 12.9965 46 15.6417 46 18.4ZM38.3077 18.4C38.3077 19.0365 38.0646 19.647 37.6318 20.0971C37.199 20.5471 36.612 20.8 36 20.8C35.388 20.8 34.801 20.5471 34.3682 20.0971C33.9354 19.647 33.6923 19.0365 33.6923 18.4C33.6923 17.7635 33.9354 17.153 34.3682 16.7029C34.801 16.2529 35.388 16 36 16C36.612 16 37.199 16.2529 37.6318 16.7029C38.0646 17.153 38.3077 17.7635 38.3077 18.4Z" fill="#FFB800"/>
<path d="M28.8099 40.333H29.5579V41.939C29.5579 42.467 29.4845 42.9877 29.3379 43.501C29.1912 44.007 28.9859 44.4873 28.7219 44.942C28.4652 45.3893 28.1645 45.7853 27.8199 46.13C27.4752 46.4747 27.1049 46.746 26.7089 46.944L26.1809 46.218C26.5402 46.042 26.8775 45.8037 27.1929 45.503C27.5155 45.2023 27.7979 44.8577 28.0399 44.469C28.2819 44.0803 28.4689 43.6697 28.6009 43.237C28.7402 42.8043 28.8099 42.3717 28.8099 41.939V40.333ZM28.9969 40.333H29.7339V41.939C29.7339 42.357 29.7999 42.775 29.9319 43.193C30.0712 43.6037 30.2619 43.9923 30.5039 44.359C30.7532 44.7183 31.0355 45.0373 31.3509 45.316C31.6735 45.5947 32.0182 45.8147 32.3849 45.976L31.8789 46.702C31.4755 46.5113 31.0979 46.2547 30.7459 45.932C30.3939 45.6093 30.0859 45.239 29.8219 44.821C29.5652 44.3957 29.3635 43.941 29.2169 43.457C29.0702 42.9657 28.9969 42.4597 28.9969 41.939V40.333ZM26.4999 39.926H32.0549V40.685H26.4999V39.926ZM33.4079 38.903H34.3209V48.858H33.4079V38.903ZM37.944 43.556H44.775V44.293H37.944V43.556ZM36.8 46.845H45.82V47.604H36.8V46.845ZM40.837 43.875H41.739V47.142H40.837V43.875ZM37.944 39.695H44.676V40.454H38.857V43.886H37.944V39.695Z" fill="#FFB800"/>
</svg>
