<svg width="72" height="60" viewBox="0 0 72 60" fill="none" xmlns="http://www.w3.org/2000/svg">
<rect width="72" height="60" fill="white"/>
<path fill-rule="evenodd" clip-rule="evenodd" d="M41.25 13.25C41.25 14.6424 40.6969 15.9777 39.7123 16.9623C38.7277 17.9469 37.3924 18.5 36 18.5C34.6076 18.5 33.2723 17.9469 32.2877 16.9623C31.3031 15.9777 30.75 14.6424 30.75 13.25C30.75 11.8576 31.3031 10.5223 32.2877 9.53769C33.2723 8.55312 34.6076 8 36 8C37.3924 8 38.7277 8.55312 39.7123 9.53769C40.6969 10.5223 41.25 11.8576 41.25 13.25ZM36 19.25C30.225 19.25 25.5 22.25 25.5 25.25C25.5 26.2446 25.8951 27.1984 26.5983 27.9016C27.3016 28.6049 28.2554 29 29.25 29H42.75C43.7446 29 44.6984 28.6049 45.4016 27.9016C46.1049 27.1984 46.5 26.2446 46.5 25.25C46.5 22.25 41.775 19.25 36 19.25Z" fill="#FFB800"/>
<path d="M29.584 37.1797H30.7871L33.0483 43.2114L35.3042 37.1797H36.5073L33.521 45H32.5649L29.584 37.1797ZM29.0361 37.1797H30.1802L30.3789 42.4004V45H29.0361V37.1797ZM35.9111 37.1797H37.0605V45H35.7124V42.4004L35.9111 37.1797ZM40.7188 44.3662L42.2979 39.1885H43.6836L41.3525 45.8862C41.2988 46.0295 41.229 46.1852 41.1431 46.3535C41.0571 46.5218 40.9443 46.6812 40.8047 46.8315C40.6686 46.9855 40.4985 47.109 40.2944 47.2021C40.0903 47.2988 39.8433 47.3472 39.5532 47.3472C39.4386 47.3472 39.3276 47.3364 39.2202 47.3149C39.1164 47.297 39.0179 47.2773 38.9248 47.2559L38.9194 46.2676C38.9552 46.2712 38.9982 46.2747 39.0483 46.2783C39.1021 46.2819 39.145 46.2837 39.1772 46.2837C39.3921 46.2837 39.5711 46.2568 39.7144 46.2031C39.8576 46.153 39.974 46.0706 40.0635 45.9561C40.1566 45.8415 40.2354 45.6875 40.2998 45.4941L40.7188 44.3662ZM39.8271 39.1885L41.2075 43.5391L41.4385 44.9033L40.5415 45.1343L38.4307 39.1885H39.8271Z" fill="#FFB800"/>
</svg>
