<svg width="20" height="21" viewBox="0 0 20 21" fill="none" xmlns="http://www.w3.org/2000/svg">
<path fill-rule="evenodd" clip-rule="evenodd" d="M5.24629 10.2287L6.17629 5.58474C6.36643 4.64482 6.87585 3.79961 7.61812 3.19246C8.36039 2.58532 9.28983 2.25361 10.2488 2.25361C11.2077 2.25361 12.1372 2.58532 12.8795 3.19246C13.6217 3.79961 14.1311 4.64482 14.3213 5.58474L15.2513 10.2287C15.5304 11.6144 16.2112 12.8873 17.2088 13.8887L17.4998 14.1782C17.607 14.2856 17.6835 14.4196 17.7215 14.5665C17.7594 14.7133 17.7574 14.8677 17.7156 15.0135C17.6739 15.1593 17.5938 15.2913 17.4839 15.3958C17.3739 15.5003 17.238 15.5734 17.0903 15.6077L15.8588 15.8927C12.1675 16.7463 8.33008 16.7463 4.63879 15.8927L3.40879 15.6077C3.26091 15.5736 3.12485 15.5006 3.01471 15.3962C2.90458 15.2918 2.82439 15.1598 2.78245 15.014C2.74052 14.8681 2.73837 14.7137 2.77624 14.5668C2.8141 14.4198 2.8906 14.2857 2.99779 14.1782L3.28879 13.8887C4.28859 12.889 4.96975 11.6154 5.24629 10.2287ZM3.04129 9.78774L3.96979 5.14374C4.26176 3.69357 5.04669 2.38917 6.19127 1.45207C7.33585 0.514962 8.76952 0.00292969 10.2488 0.00292969C11.7281 0.00292969 13.1617 0.514962 14.3063 1.45207C15.4509 2.38917 16.2358 3.69357 16.5278 5.14374L17.4578 9.78774C17.6468 10.7387 18.1148 11.6117 18.8003 12.2972L19.0913 12.5882C19.4829 12.9794 19.7625 13.4684 19.9012 14.0042C20.0399 14.54 20.0325 15.1032 19.8798 15.6353C19.7272 16.1673 19.4349 16.6487 19.0332 17.0295C18.6315 17.4104 18.1352 17.6767 17.5958 17.8007L16.3643 18.0857C15.3113 18.3257 14.2513 18.5047 13.1843 18.6227C13.0417 19.2954 12.6723 19.8986 12.1381 20.3314C11.6038 20.7643 10.9371 21.0005 10.2495 21.0005C9.56196 21.0005 8.89524 20.7643 8.361 20.3314C7.82676 19.8986 7.45741 19.2954 7.31479 18.6227C6.245 18.5068 5.18311 18.3269 4.13479 18.0842L2.90179 17.7992C2.36297 17.6746 1.86731 17.408 1.4662 17.0273C1.06508 16.6465 0.773106 16.1654 0.620545 15.6338C0.467984 15.1022 0.460389 14.5395 0.598549 14.004C0.736708 13.4685 1.01559 12.9797 1.40629 12.5882L1.69879 12.2957C2.38429 11.6102 2.85229 10.7357 3.04129 9.78624" fill="#FFB800"/>
</svg>
