<svg width="40" height="40" viewBox="0 0 40 40" fill="none" xmlns="http://www.w3.org/2000/svg">
<path fill-rule="evenodd" clip-rule="evenodd" d="M24.7701 18.7149C24.7701 19.5734 24.6064 20.4234 24.2883 21.2165C23.9701 22.0096 23.5038 22.7302 22.916 23.3372C22.3282 23.9442 21.6303 24.4257 20.8623 24.7542C20.0942 25.0827 19.271 25.2518 18.4397 25.2518C17.6084 25.2518 16.7852 25.0827 16.0172 24.7542C15.2491 24.4257 14.5513 23.9442 13.9634 23.3372C13.3756 22.7302 12.9093 22.0096 12.5912 21.2165C12.273 20.4234 12.1093 19.5734 12.1093 18.7149C12.1093 16.9813 12.7763 15.3186 13.9634 14.0927C15.1506 12.8668 16.7608 12.1781 18.4397 12.1781C20.1187 12.1781 21.7288 12.8668 22.916 14.0927C24.1032 15.3186 24.7701 16.9813 24.7701 18.7149ZM23.6166 25.6004C21.9206 26.96 19.7865 27.6011 17.6488 27.3932C15.5112 27.1852 13.5306 26.1438 12.1104 24.481C10.6901 22.8182 9.93692 20.659 10.0041 18.4429C10.0714 16.2269 10.9539 14.1206 12.4722 12.5528C13.9904 10.985 16.0302 10.0737 18.1763 10.0043C20.3224 9.93486 22.4134 10.7126 24.0237 12.1792C25.634 13.6457 26.6425 15.6909 26.8439 17.8983C27.0453 20.1056 26.4245 22.3093 25.1078 24.0606L29.0326 28.1135C29.1363 28.2132 29.2194 28.3335 29.2771 28.4671C29.3347 28.6008 29.3658 28.745 29.3683 28.8913C29.3708 29.0376 29.3447 29.1829 29.2916 29.3186C29.2386 29.4542 29.1596 29.5774 29.0594 29.6809C28.9592 29.7844 28.8399 29.8659 28.7085 29.9207C28.5771 29.9755 28.4364 30.0024 28.2947 29.9998C28.1531 29.9972 28.0134 29.9652 27.8839 29.9057C27.7545 29.8461 27.638 29.7603 27.5414 29.6532L23.6166 25.6004Z" fill="#FFB800"/>
</svg>
