<svg width="360" height="180" viewBox="0 0 360 180" fill="none" xmlns="http://www.w3.org/2000/svg">
<rect width="360" height="180" rx="10" fill="#F2F2F2"/>
<path d="M22.3398 20.6016V30.5H20.5488V22.3379H20.4941L18.1836 23.8145V22.1875L20.6309 20.6016H22.3398Z" fill="black"/>
<path d="M44.3691 27.2051V31.7305H42.8789V28.4355H35.6875V27.2051H44.3691ZM34.1562 26.0977V20.2734H37.3555V21.5039H35.6465V24.8604C36.2139 24.8398 36.7949 24.7852 37.4512 24.6484L37.5879 25.8652C36.5215 26.1045 35.6807 26.0908 34.7305 26.0977H34.1562ZM37.9844 26.0977V20.2734H41.4434V21.5039H39.4883V24.8672C40.4385 24.8535 41.0674 24.7988 41.7852 24.6348L41.9355 25.8516C40.9512 26.0703 40.165 26.0908 38.6406 26.0977H37.9844ZM40.9375 23.6777V22.4609H42.8789V19.3574H44.3691V26.6719H42.8789V23.6777H40.9375ZM50.7545 27.4922V31.7031H49.2779V28.709H46.5709V27.4922H50.7545ZM45.4498 26.6035V25.4004H50.3033V24.334H46.9127V19.6035H48.4166V20.8477H53.7486V19.6035H55.2525V24.334H51.8345V25.4004H56.7154V26.6035H45.4498ZM48.4166 23.1309H53.7486V21.9961H48.4166V23.1309ZM51.315 28.709V27.4922H55.4166V31.7031H53.9127V28.709H51.315ZM67.2706 19.3574V31.7305H65.7394V19.3574H67.2706ZM57.3859 24.6211C57.379 21.9551 58.7394 20.2598 60.6124 20.2598C62.465 20.2598 63.8321 21.9551 63.839 24.6211C63.8321 27.3076 62.465 28.9961 60.6124 28.9961C58.7394 28.9961 57.379 27.3076 57.3859 24.6211ZM58.8487 24.6211C58.8487 26.5215 59.5665 27.6221 60.6124 27.6289C61.6515 27.6221 62.3624 26.5215 62.3624 24.6211C62.3624 22.7344 61.6515 21.627 60.6124 21.627C59.5665 21.627 58.8487 22.7344 58.8487 24.6211Z" fill="#999999"/>
<path fill-rule="evenodd" clip-rule="evenodd" d="M155.37 26.2058C155.438 26.2895 155.482 26.3919 155.497 26.501C155.511 26.6101 155.496 26.7214 155.452 26.8215C155.409 26.9217 155.339 27.0066 155.251 27.0663C155.163 27.126 155.061 27.1579 154.956 27.1582H150.048C149.943 27.1579 149.841 27.126 149.753 27.0663C149.665 27.0066 149.595 26.9217 149.552 26.8215C149.508 26.7214 149.493 26.6101 149.507 26.501C149.522 26.3919 149.566 26.2895 149.634 26.2058L151.902 23.4325C151.972 23.3464 152.059 23.2774 152.157 23.2301C152.255 23.1828 152.362 23.1582 152.47 23.1582H152.533C152.641 23.1582 152.747 23.1828 152.845 23.2301C152.943 23.2774 153.03 23.3464 153.101 23.4325L155.37 26.2058Z" fill="#FF5F5F"/>
<path d="M161.164 29L161.154 28.3555L163.566 25.8164C164.401 24.9277 164.802 24.4492 164.807 23.7949C164.802 23.0674 164.196 22.5986 163.4 22.5938C162.556 22.5986 162.028 23.1309 162.023 23.9219H161.193C161.184 22.6719 162.15 21.832 163.43 21.832C164.714 21.832 165.622 22.6963 165.627 23.7949C165.622 24.5859 165.256 25.2012 164.006 26.4902L162.385 28.1602V28.2188H165.754V29H161.164Z" fill="#999999"/>
<path d="M195.025 30.6367C193.091 30.623 191.163 29.4746 191.17 25.8242C191.17 22.4404 192.708 20.4648 195.135 20.4648C197.042 20.4648 198.354 21.6611 198.58 23.2676H196.816C196.639 22.5088 196.037 22.0029 195.135 22.0098C193.699 22.0029 192.899 23.2744 192.893 25.3594H192.988C193.494 24.5049 194.444 23.999 195.531 24.0059C197.309 23.999 198.683 25.3457 198.676 27.2188C198.683 29.1875 197.213 30.6504 195.025 30.6367ZM193.084 27.2734C193.098 28.3057 193.904 29.1943 195.025 29.2012C196.126 29.1943 196.946 28.3467 196.953 27.2598C196.946 26.207 196.153 25.3594 195.053 25.3594C193.938 25.3594 193.098 26.2412 193.084 27.2734Z" fill="black"/>
<path d="M218.822 19.918V20.8613C218.829 21.7773 218.829 22.8438 218.556 24.2246H220.203V25.4551H215.295V27.3828H218.85V31.7168H217.332V28.5996H210.059V27.3828H213.777V25.4551H208.91V24.2246H217.031C217.277 22.9531 217.305 21.9893 217.305 21.1348H210.305V19.918H218.822ZM230.198 19.3574V22.0371H231.92V23.3223H230.198V26.1387H228.68V19.3574H230.198ZM220.874 25.6602V19.9863H222.377V21.5859H225.262V19.9863H226.766V25.6602H220.874ZM222.186 31.5664V26.6719H223.704V27.916H228.68V26.6719H230.198V31.5664H222.186ZM222.377 24.457H225.262V22.7754H222.377V24.457ZM223.704 30.3359H228.68V29.1055H223.704V30.3359Z" fill="#999999"/>
<g clip-path="url(#clip0_812_1907)">
<path fill-rule="evenodd" clip-rule="evenodd" d="M323.634 24.2024C323.566 24.1187 323.522 24.0163 323.507 23.9072C323.493 23.7981 323.508 23.6868 323.552 23.5867C323.595 23.4865 323.665 23.4016 323.753 23.3419C323.841 23.2822 323.943 23.2504 324.048 23.25H328.956C329.061 23.2504 329.163 23.2822 329.251 23.3419C329.339 23.4016 329.409 23.4865 329.452 23.5867C329.496 23.6868 329.511 23.7981 329.497 23.9072C329.482 24.0163 329.438 24.1187 329.37 24.2024L327.102 26.9757C327.032 27.0618 326.945 27.1308 326.847 27.1781C326.749 27.2254 326.642 27.25 326.534 27.25H326.471C326.363 27.25 326.257 27.2254 326.159 27.1781C326.061 27.1308 325.974 27.0618 325.903 26.9757L323.634 24.2024Z" fill="#547CFF"/>
</g>
<path d="M334.164 29L334.154 28.3555L336.566 25.8164C337.401 24.9277 337.802 24.4492 337.807 23.7949C337.802 23.0674 337.196 22.5986 336.4 22.5938C335.556 22.5986 335.028 23.1309 335.023 23.9219H334.193C334.184 22.6719 335.15 21.832 336.43 21.832C337.714 21.832 338.622 22.6963 338.627 23.7949C338.622 24.5859 338.256 25.2012 337.006 26.4902L335.385 28.1602V28.2188H338.754V29H334.164Z" fill="#999999"/>
<path d="M17.8203 62.5V61.2148L21.3203 57.8379C22.3184 56.8398 22.8379 56.252 22.8379 55.418C22.8379 54.4951 22.1064 53.9141 21.1426 53.9141C20.124 53.9141 19.4678 54.5498 19.4746 55.5547H17.7793C17.7725 53.6816 19.1807 52.4648 21.1562 52.4648C23.1797 52.4648 24.54 53.6748 24.5469 55.3359C24.54 56.4502 24.0068 57.3525 22.0586 59.1914L20.2949 60.9414V61.0098H24.6973V62.5H17.8203Z" fill="black"/>
<path d="M45.6777 51.3574V63.7168H44.1602V51.3574H45.6777ZM35.5332 60.2031C37.502 59.335 38.6367 57.2568 38.6367 55.2812V54.6387H35.916V53.4219H38.6367V51.6172H40.1406V53.4219H42.8066V54.6387H40.1543V55.2812C40.1475 57.1611 41.3027 59.1777 43.2988 60.0117L42.4648 61.1738C41.0498 60.5723 39.9834 59.3418 39.416 57.8516C38.8623 59.4307 37.7959 60.75 36.3535 61.3789L35.5332 60.2031ZM53.567 52.2734C53.5533 55.6572 51.9605 58.0293 47.7837 59.3555L47.1959 58.1523C49.1168 57.5576 50.3541 56.7715 51.0855 55.8008L47.4009 56.0879L47.1685 54.8848L51.6871 54.707C51.8306 54.3242 51.9195 53.9209 51.9605 53.5039H47.7974V52.2734H53.567ZM49.0689 63.5254V59.6426H50.6002V62.2949H57.5865V63.5254H49.0689ZM55.7134 60.3398V51.3711H57.2447V60.3398H55.7134Z" fill="#999999"/>
<path d="M154.5 58H159.5" stroke="#999999" stroke-linecap="round"/>
<path d="M193.189 62.5L197.482 54.1602V54.0918H192.506V52.6016H199.328V54.1191L195.035 62.5H193.189Z" fill="black"/>
<path d="M212.514 53.5176C212.514 54.4678 212.705 55.6914 213.457 56.5938C214.202 55.6982 214.394 54.4951 214.4 53.5176V53.3809H213.689V52.1504H217.189V53.3809H215.836V53.5176C215.836 54.8643 216.314 56.375 217.736 57.1133L216.916 58.2207C216.014 57.7354 215.446 56.9287 215.125 55.9922C214.845 56.9424 214.332 57.8105 213.443 58.3438C212.575 57.8174 212.076 56.9629 211.789 56.0264C211.461 56.9424 210.907 57.7354 210.012 58.2207L209.191 57.1133C210.593 56.3818 211.099 54.8369 211.092 53.5176V53.3809H209.67V52.1504H213.238V53.3809H212.514V53.5176ZM211.256 63.5664V59.1094H219.486V63.5664H211.256ZM212.746 62.3359H217.982V60.3125H212.746V62.3359ZM217.969 58.6035V51.3574H219.486V54.2695H220.854V55.5273H219.486V58.6035H217.969ZM223.329 51.7129V52.8613H224.751V51.7129H226.172V56.1016H226.979V51.7129H228.428V52.8613H229.823V51.7129H231.272V56.4023H227.335V57.4414H232.215V58.6719H220.95V57.4414H225.803V56.4023H221.893V51.7129H223.329ZM222.276 61.5293C222.276 60.1553 223.862 59.376 226.569 59.3691C229.235 59.376 230.848 60.1553 230.862 61.5293C230.848 62.9307 229.235 63.7031 226.569 63.7031C223.862 63.7031 222.276 62.9307 222.276 61.5293ZM223.329 55.1719H224.751V54.0234H223.329V55.1719ZM223.794 61.5293C223.794 62.1924 224.744 62.5547 226.569 62.5547C228.353 62.5547 229.31 62.1924 229.317 61.5293C229.31 60.8594 228.353 60.5107 226.569 60.5176C224.744 60.5107 223.794 60.8594 223.794 61.5293ZM228.428 55.1719H229.823V54.0234H228.428V55.1719Z" fill="#999999"/>
<path fill-rule="evenodd" clip-rule="evenodd" d="M330.87 58.2058C330.938 58.2895 330.982 58.3919 330.997 58.501C331.011 58.6101 330.996 58.7214 330.952 58.8215C330.909 58.9217 330.839 59.0066 330.751 59.0663C330.663 59.126 330.561 59.1579 330.456 59.1582H325.548C325.443 59.1579 325.341 59.126 325.253 59.0663C325.165 59.0066 325.095 58.9217 325.052 58.8215C325.008 58.7214 324.993 58.6101 325.007 58.501C325.022 58.3919 325.066 58.2895 325.134 58.2058L327.402 55.4325C327.472 55.3464 327.559 55.2774 327.657 55.2301C327.755 55.1828 327.862 55.1582 327.97 55.1582H328.033C328.141 55.1582 328.247 55.1828 328.345 55.2301C328.443 55.2774 328.53 55.3464 328.601 55.4325L330.87 58.2058Z" fill="#FF5F5F"/>
<path d="M338.164 53.9297V61H337.275V54.8477H337.236L335.518 55.9902V55.1016L337.275 53.9297H338.164Z" fill="#999999"/>
<path d="M20.916 94.6367C18.8037 94.6367 17.293 93.4883 17.252 91.8203H19.043C19.0908 92.6133 19.8838 93.1396 20.916 93.1328C22.0029 93.1396 22.7891 92.5381 22.7891 91.6562C22.7891 90.7676 22.0234 90.1318 20.7383 90.125H19.8496V88.7578H20.7383C21.791 88.7578 22.5225 88.1699 22.5156 87.3086C22.5225 86.4746 21.8936 85.9141 20.9297 85.9141C20 85.9141 19.2002 86.4336 19.166 87.2676H17.457C17.498 85.6064 19.0088 84.4648 20.9434 84.4648C22.9531 84.4648 24.252 85.6953 24.2383 87.2129C24.252 88.3203 23.5137 89.1201 22.4336 89.3457V89.4277C23.8281 89.6123 24.6211 90.5078 24.6074 91.752C24.6211 93.4268 23.0557 94.6367 20.916 94.6367Z" fill="black"/>
<path d="M46.1895 89.7285V90.9453H34.9102V89.7285H39.7773V88.3887H36.291V83.9727H44.8223V85.2031H37.8086V87.1582H44.9316V88.3887H41.3086V89.7285H46.1895ZM36.3047 95.4707V91.875H37.7949V94.2402H45.0137V95.4707H36.3047ZM56.3072 83.3574V88.293H58.0162V89.5508H56.3072V95.7168H54.7759V83.3574H56.3072ZM46.272 92.1758C48.0084 90.3301 48.5826 88.3682 48.7056 85.9004H46.7642V84.6562H50.1548C50.148 87.8965 49.69 90.624 47.4615 93.0371L46.272 92.1758ZM49.772 92.9961C51.5357 90.8906 52.0347 88.5801 52.1304 85.9004H50.565V84.6562H53.5728C53.566 87.9785 53.2173 91.1504 50.9888 93.8301L49.772 92.9961ZM64.3741 85.0527C64.3741 86.96 66.2404 88.8809 68.8312 89.332L68.1476 90.6035C66.0763 90.1729 64.381 88.915 63.5743 87.2539C62.7609 88.9014 61.0655 90.166 59.0011 90.6035L58.3312 89.332C60.881 88.8672 62.754 86.9531 62.7609 85.0527V84.1367H64.3741V85.0527ZM57.9894 94.1445V92.8867H69.2823V94.1445H57.9894Z" fill="#999999"/>
<path fill-rule="evenodd" clip-rule="evenodd" d="M156.37 90.2058C156.438 90.2895 156.482 90.3919 156.497 90.501C156.511 90.6101 156.496 90.7214 156.452 90.8215C156.409 90.9217 156.339 91.0066 156.251 91.0663C156.163 91.126 156.061 91.1579 155.956 91.1582H151.048C150.943 91.1579 150.841 91.126 150.753 91.0663C150.665 91.0066 150.595 90.9217 150.552 90.8215C150.508 90.7214 150.493 90.6101 150.507 90.501C150.522 90.3919 150.566 90.2895 150.634 90.2058L152.902 87.4325C152.972 87.3464 153.059 87.2774 153.157 87.2301C153.255 87.1828 153.362 87.1582 153.47 87.1582H153.533C153.641 87.1582 153.747 87.1828 153.845 87.2301C153.943 87.2774 154.03 87.3464 154.101 87.4325L156.37 90.2058Z" fill="#FF5F5F"/>
<path d="M160.164 93L160.154 92.3555L162.566 89.8164C163.401 88.9277 163.802 88.4492 163.807 87.7949C163.802 87.0674 163.196 86.5986 162.4 86.5938C161.556 86.5986 161.028 87.1309 161.023 87.9219H160.193C160.184 86.6719 161.15 85.832 162.43 85.832C163.714 85.832 164.622 86.6963 164.627 87.7949C164.622 88.5859 164.256 89.2012 163.006 90.4902L161.385 92.1602V92.2188H164.754V93H160.164Z" fill="#999999"/>
<path d="M195.916 94.6367C193.708 94.6367 192.149 93.4609 192.156 91.8477C192.149 90.5898 193.086 89.5645 194.275 89.373V89.3184C193.236 89.0996 192.532 88.1973 192.525 87.1172C192.532 85.5859 193.961 84.4648 195.916 84.4648C197.857 84.4648 199.293 85.5859 199.293 87.1172C199.293 88.2041 198.568 89.0996 197.543 89.3184V89.373C198.726 89.5645 199.669 90.5898 199.676 91.8477C199.669 93.4609 198.104 94.6367 195.916 94.6367ZM193.988 91.6836C193.981 92.5996 194.74 93.2285 195.916 93.2285C197.078 93.2285 197.837 92.5996 197.844 91.6836C197.837 90.7539 197.03 90.0635 195.916 90.0703C194.802 90.0635 193.981 90.7471 193.988 91.6836ZM194.262 87.2812C194.269 88.1494 194.952 88.7441 195.916 88.7441C196.866 88.7441 197.557 88.1494 197.557 87.2812C197.557 86.4404 196.887 85.8594 195.916 85.8594C194.925 85.8594 194.269 86.4404 194.262 87.2812Z" fill="black"/>
<path d="M220.479 83.3711V90.8906H219.029V87.8145H217.854V90.8359H216.432V83.5488H217.854V86.5703H219.029V83.3711H220.479ZM209.842 85.832V84.6289H212.18V83.4258H213.684V84.6289H215.994V85.832H209.842ZM210.279 88.4434C210.266 87.1514 211.387 86.3037 212.932 86.2969C214.504 86.3037 215.611 87.1514 215.625 88.4434C215.611 89.7148 214.504 90.583 212.932 90.5898C211.387 90.583 210.266 89.7148 210.279 88.4434ZM211.633 88.4434C211.633 89.0928 212.159 89.4824 212.932 89.4824C213.711 89.4824 214.244 89.0928 214.244 88.4434C214.244 87.7803 213.711 87.4043 212.932 87.4043C212.159 87.4043 211.633 87.7803 211.633 88.4434ZM212.139 95.5664V91.4648H220.479V95.5664H212.139ZM213.643 94.3359H218.988V92.668H213.643V94.3359ZM231.813 83.3574V95.7305H230.309V89.0312H227.794V92.7363H221.915V84.3145H223.446V87.3906H226.303V84.3145H227.794V87.7871H230.309V83.3574H231.813ZM223.446 91.5195H226.303V88.5801H223.446V91.5195ZM243.339 83.3574V95.7168H241.821V89.4277H239.21V88.1836H241.821V83.3574H243.339ZM232.907 92.2988C236.107 90.7266 237.481 88.6416 237.734 85.873H233.482V84.6699H239.265C239.251 88.3203 237.959 91.3896 233.7 93.4883L232.907 92.2988Z" fill="#999999"/>
<path d="M329 90H334" stroke="#999999" stroke-linecap="round"/>
<path d="M16.6426 124.654V123.232L20.9219 116.602H23.1367V123.191H24.4355V124.654H23.1367V126.5H21.4414V124.654H16.6426ZM18.4609 123.191H21.4688V118.625H21.3594L18.4609 123.123V123.191Z" fill="black"/>
<path d="M45.7324 115.357V127.717H44.2012V115.357H45.7324ZM35.3828 123.547C35.8613 123.547 36.374 123.54 36.9141 123.533V117.805H35.7109V116.561H42.7246V117.805H41.5352V123.349C42.123 123.301 42.7109 123.246 43.2715 123.178L43.3535 124.312C40.7012 124.743 37.8096 124.791 35.5332 124.791L35.3828 123.547ZM38.377 123.506C38.9238 123.492 39.4844 123.472 40.0449 123.438V117.805H38.377V123.506ZM51.3795 118.871C51.3726 120.778 52.5211 122.952 54.4693 123.861L53.6216 125.064C52.2271 124.408 51.1949 123.082 50.6412 121.537C50.0806 123.232 49.0005 124.682 47.5787 125.365L46.69 124.176C48.6587 123.239 49.855 120.929 49.8619 118.871V117.832H47.1685V116.574H53.9634V117.832H51.3795V118.871ZM55.1119 127.717V115.357H56.6295V120.17H58.5298V121.441H56.6295V127.717H55.1119Z" fill="#999999"/>
<path fill-rule="evenodd" clip-rule="evenodd" d="M156.87 122.206C156.938 122.289 156.982 122.392 156.997 122.501C157.011 122.61 156.996 122.721 156.952 122.822C156.909 122.922 156.839 123.007 156.751 123.066C156.663 123.126 156.561 123.158 156.456 123.158H151.548C151.443 123.158 151.341 123.126 151.253 123.066C151.165 123.007 151.095 122.922 151.052 122.822C151.008 122.721 150.993 122.61 151.007 122.501C151.022 122.392 151.066 122.289 151.134 122.206L153.402 119.432C153.472 119.346 153.559 119.277 153.657 119.23C153.755 119.183 153.862 119.158 153.97 119.158H154.033C154.141 119.158 154.247 119.183 154.345 119.23C154.443 119.277 154.53 119.346 154.601 119.432L156.87 122.206Z" fill="#FF5F5F"/>
<path d="M162.164 117.93V125H161.275V118.848H161.236L159.518 119.99V119.102L161.275 117.93H162.164Z" fill="#999999"/>
<path d="M196.334 116.465C198.269 116.479 200.196 117.634 200.203 121.25C200.203 124.661 198.658 126.637 196.225 126.637C194.317 126.637 192.998 125.447 192.779 123.807H194.543C194.721 124.593 195.329 125.092 196.225 125.092C197.66 125.092 198.467 123.827 198.48 121.701H198.371C197.872 122.562 196.915 123.075 195.828 123.068C194.058 123.075 192.69 121.729 192.684 119.855C192.684 117.921 194.14 116.451 196.334 116.465ZM194.42 119.814C194.42 120.881 195.213 121.715 196.32 121.715C197.421 121.715 198.269 120.826 198.262 119.801C198.262 118.796 197.455 117.907 196.348 117.9C195.233 117.907 194.406 118.755 194.42 119.814Z" fill="black"/>
<path d="M220.664 115.836V117.039H217.089C217.28 118.092 218.791 119.062 221.143 119.295L220.582 120.484C218.354 120.245 216.699 119.35 216.029 118.092C215.359 119.343 213.719 120.245 211.49 120.484L210.957 119.295C213.274 119.062 214.778 118.085 214.977 117.039H211.436V115.836H220.664ZM210.41 122.658V121.441H215.277V119.732H216.781V121.441H221.676V122.658H210.41ZM211.654 124.873V123.656H220.295V127.717H218.777V124.873H211.654ZM223.877 115.904V117.477H226.762V115.904H228.266V121.291H222.374V115.904H223.877ZM223.618 123.369V122.18H231.698V125.42H225.135V126.404H232.081V127.607H223.631V124.312H230.18V123.369H223.618ZM223.877 120.088H226.762V118.625H223.877V120.088ZM230.18 121.688V115.357H231.698V117.859H233.42V119.09H231.698V121.688H230.18Z" fill="#999999"/>
<path d="M329.5 122H334.5" stroke="#999999" stroke-linecap="round"/>
<path d="M19.834 158.637C17.8584 158.637 16.4023 157.454 16.3477 155.82H18.084C18.1387 156.62 18.8975 157.194 19.834 157.201C20.9414 157.194 21.7412 156.395 21.7344 155.301C21.7412 154.166 20.9209 153.366 19.7793 153.359C19.0068 153.353 18.4463 153.626 18.1387 154.207H16.4844L17.0859 148.602H22.9375V150.092H18.5488L18.248 152.717H18.3438C18.7266 152.286 19.4443 151.972 20.2578 151.965C22.0967 151.972 23.4639 153.339 23.457 155.246C23.4639 157.222 21.9736 158.637 19.834 158.637Z" fill="black"/>
<path d="M45.2031 156.982V158.227H33.9102V156.982H38.7773V154.576H35.1543V148.178H36.6719V150.201H42.4004V148.178H43.918V154.576H40.2812V156.982H45.2031ZM36.6719 153.346H42.4004V151.418H36.6719V153.346ZM55.5259 147.357V150.256H56.8931V151.514H55.5259V154.549H54.0084V147.357H55.5259ZM45.2584 152.867C46.6871 151.985 47.1109 150.29 47.1177 148.902V148.027H48.5533V148.902C48.5464 149.955 48.7242 151.288 49.5171 152.266C50.2964 151.302 50.4605 149.996 50.4673 148.902V148.027H51.8892V148.902C51.8892 150.379 52.3267 152.006 53.7759 152.867L52.9146 153.947C52.0464 153.435 51.5064 152.607 51.192 151.657C50.898 152.635 50.3853 153.523 49.5103 154.07C48.6216 153.51 48.1089 152.594 47.8218 151.603C47.5005 152.566 46.9673 153.421 46.0923 153.947L45.2584 152.867ZM47.2955 159.566V155.082H55.5259V159.566H47.2955ZM48.7857 158.336H54.022V156.271H48.7857V158.336Z" fill="#999999"/>
<path fill-rule="evenodd" clip-rule="evenodd" d="M149.634 152.202C149.566 152.119 149.522 152.016 149.507 151.907C149.493 151.798 149.508 151.687 149.552 151.587C149.595 151.486 149.665 151.402 149.753 151.342C149.841 151.282 149.943 151.25 150.048 151.25H154.956C155.061 151.25 155.163 151.282 155.251 151.342C155.339 151.402 155.409 151.486 155.452 151.587C155.496 151.687 155.511 151.798 155.497 151.907C155.482 152.016 155.438 152.119 155.37 152.202L153.102 154.976C153.032 155.062 152.945 155.131 152.847 155.178C152.749 155.225 152.642 155.25 152.534 155.25H152.471C152.363 155.25 152.257 155.225 152.159 155.178C152.061 155.131 151.974 155.062 151.903 154.976L149.634 152.202Z" fill="#547CFF"/>
<path d="M159.164 157L159.154 156.355L161.566 153.816C162.401 152.928 162.802 152.449 162.807 151.795C162.802 151.067 162.196 150.599 161.4 150.594C160.556 150.599 160.028 151.131 160.023 151.922H159.193C159.184 150.672 160.15 149.832 161.43 149.832C162.714 149.832 163.622 150.696 163.627 151.795C163.622 152.586 163.256 153.201 162.006 154.49L160.385 156.16V156.219H163.754V157H159.164Z" fill="#999999"/>
<path d="M195.34 148.602V158.5H193.549V150.338H193.494L191.184 151.814V150.188L193.631 148.602H195.34ZM200.836 158.637C198.451 158.637 197.029 156.791 197.036 153.551C197.029 150.324 198.464 148.465 200.836 148.465C203.209 148.465 204.637 150.324 204.637 153.551C204.637 156.798 203.215 158.637 200.836 158.637ZM198.827 153.551C198.827 155.93 199.592 157.14 200.836 157.146C202.074 157.14 202.846 155.93 202.846 153.551C202.839 151.192 202.074 149.948 200.836 149.941C199.599 149.948 198.834 151.192 198.827 153.551Z" fill="black"/>
<path d="M221.205 147.357V159.717H219.688V147.357H221.205ZM210.965 156.285C211.949 156.278 213.063 156.278 214.232 156.244V155.109C212.845 154.891 211.936 154.043 211.936 152.867C211.936 151.473 213.173 150.55 214.971 150.543C216.789 150.55 218.047 151.473 218.047 152.867C218.047 154.036 217.138 154.877 215.75 155.103V156.189C216.837 156.142 217.931 156.053 218.963 155.916L219.072 157.051C216.358 157.509 213.405 157.543 211.184 157.543L210.965 156.285ZM211.225 149.982V148.779H214.232V147.398H215.75V148.779H218.744V149.982H211.225ZM213.385 152.867C213.371 153.578 214.034 153.995 214.971 153.988C215.935 153.995 216.591 153.578 216.584 152.867C216.591 152.149 215.935 151.712 214.971 151.705C214.034 151.712 213.371 152.149 213.385 152.867Z" fill="#999999"/>
<path fill-rule="evenodd" clip-rule="evenodd" d="M332.37 154.206C332.438 154.289 332.482 154.392 332.497 154.501C332.511 154.61 332.496 154.721 332.452 154.822C332.409 154.922 332.339 155.007 332.251 155.066C332.163 155.126 332.061 155.158 331.956 155.158H327.048C326.943 155.158 326.841 155.126 326.753 155.066C326.665 155.007 326.595 154.922 326.552 154.822C326.508 154.721 326.493 154.61 326.507 154.501C326.522 154.392 326.566 154.289 326.634 154.206L328.902 151.432C328.972 151.346 329.059 151.277 329.157 151.23C329.255 151.183 329.362 151.158 329.47 151.158H329.533C329.641 151.158 329.747 151.183 329.845 151.23C329.943 151.277 330.03 151.346 330.101 151.432L332.37 154.206Z" fill="#FF5F5F"/>
<path d="M336.664 149.93V157H335.775V150.848H335.736L334.018 151.99V151.102L335.775 149.93H336.664Z" fill="#999999"/>
<defs>
<clipPath id="clip0_812_1907">
<rect width="24" height="24" fill="white" transform="translate(318.5 14)"/>
</clipPath>
</defs>
</svg>
