<svg width="17" height="17" viewBox="0 0 17 17" fill="none" xmlns="http://www.w3.org/2000/svg">
<path fill-rule="evenodd" clip-rule="evenodd" d="M12.2255 13.3167C12.1037 13.4337 11.9385 13.4995 11.7662 13.4995C11.594 13.4995 11.4288 13.4337 11.3069 13.3167L8.70688 10.8167C8.64302 10.7594 8.5918 10.6904 8.55627 10.6138C8.52074 10.5371 8.50164 10.4544 8.5001 10.3704C8.49856 10.2865 8.51462 10.2032 8.54731 10.1253C8.58 10.0475 8.62866 9.97682 8.69038 9.91747C8.7521 9.85812 8.82563 9.81133 8.90656 9.7799C8.9875 9.74846 9.07419 9.73303 9.16147 9.73451C9.24874 9.73599 9.33481 9.75436 9.41455 9.78852C9.49428 9.82268 9.56604 9.87193 9.62555 9.93333L11.1162 11.3667L11.1162 4.125C11.1162 3.95924 11.1847 3.80027 11.3066 3.68306C11.4285 3.56585 11.5938 3.5 11.7662 3.5C11.9386 3.5 12.1039 3.56585 12.2258 3.68306C12.3477 3.80027 12.4162 3.95924 12.4162 4.125L12.4162 11.3667L13.9069 9.93333C14.0301 9.82293 14.1931 9.76283 14.3615 9.76569C14.5299 9.76854 14.6905 9.83414 14.8096 9.94865C14.9287 10.0632 14.9969 10.2176 14.9999 10.3796C15.0029 10.5415 14.9404 10.6982 14.8255 10.8167L12.2255 13.3167ZM5.26621 3.5C5.43855 3.50015 5.60377 3.56609 5.72555 3.68333L8.32555 6.18333C8.38941 6.24055 8.44063 6.30955 8.47616 6.38622C8.51168 6.46288 8.53079 6.54565 8.53233 6.62956C8.53387 6.71348 8.51781 6.79684 8.48512 6.87466C8.45243 6.95249 8.40377 7.02318 8.34205 7.08253C8.28032 7.14188 8.2068 7.18867 8.12586 7.2201C8.04493 7.25154 7.95824 7.26697 7.87096 7.26549C7.78369 7.26401 7.69761 7.24564 7.61788 7.21148C7.53815 7.17732 7.46639 7.12807 7.40688 7.06667L5.91621 5.63333L5.91621 12.875C5.91621 13.0408 5.84773 13.1997 5.72583 13.3169C5.60393 13.4342 5.4386 13.5 5.26621 13.5C5.09382 13.5 4.92849 13.4342 4.80659 13.3169C4.6847 13.1997 4.61621 13.0408 4.61621 12.875L4.61621 5.63333L3.12555 7.06667C3.06604 7.12807 2.99428 7.17732 2.91455 7.21148C2.83481 7.24564 2.74874 7.26401 2.66147 7.26549C2.57419 7.26697 2.4875 7.25154 2.40656 7.2201C2.32563 7.18867 2.2521 7.14188 2.19038 7.08253C2.12866 7.02318 2.08 6.95249 2.04731 6.87466C2.01462 6.79684 1.99856 6.71348 2.0001 6.62956C2.00164 6.54565 2.02074 6.46288 2.05627 6.38622C2.0918 6.30955 2.14302 6.24055 2.20688 6.18333L4.80688 3.68333C4.92866 3.56609 5.09388 3.50015 5.26621 3.5Z" fill="#FFE136"/>
</svg>
