<svg width="13" height="11" viewBox="0 0 13 11" fill="none" xmlns="http://www.w3.org/2000/svg">
<path fill-rule="evenodd" clip-rule="evenodd" d="M10.2255 10.3167C10.1037 10.4337 9.93846 10.4995 9.76621 10.4995C9.59396 10.4995 9.42876 10.4337 9.30688 10.3167L6.70688 7.81667C6.64302 7.75945 6.5918 7.69045 6.55627 7.61378C6.52074 7.53712 6.50164 7.45435 6.5001 7.37044C6.49856 7.28652 6.51462 7.20316 6.54731 7.12534C6.58 7.04751 6.62866 6.97682 6.69038 6.91747C6.7521 6.85812 6.82563 6.81133 6.90656 6.7799C6.9875 6.74846 7.07419 6.73303 7.16147 6.73451C7.24874 6.73599 7.33481 6.75436 7.41455 6.78852C7.49428 6.82268 7.56604 6.87193 7.62555 6.93333L9.11621 8.36667L9.11621 1.125C9.11621 0.95924 9.1847 0.800268 9.30659 0.683058C9.42849 0.565848 9.59382 0.5 9.76621 0.5C9.9386 0.5 10.1039 0.565848 10.2258 0.683058C10.3477 0.800268 10.4162 0.95924 10.4162 1.125L10.4162 8.36667L11.9069 6.93333C12.0301 6.82293 12.1931 6.76283 12.3615 6.76569C12.5299 6.76854 12.6905 6.83414 12.8096 6.94865C12.9287 7.06316 12.9969 7.21765 12.9999 7.37957C13.0029 7.54148 12.9404 7.69819 12.8255 7.81667L10.2255 10.3167ZM3.26621 0.5C3.43855 0.500145 3.60377 0.566089 3.72555 0.683333L6.32555 3.18333C6.38941 3.24055 6.44063 3.30955 6.47616 3.38622C6.51168 3.46288 6.53079 3.54565 6.53233 3.62956C6.53387 3.71348 6.51781 3.79684 6.48512 3.87466C6.45243 3.95249 6.40377 4.02318 6.34205 4.08253C6.28032 4.14188 6.2068 4.18867 6.12586 4.2201C6.04493 4.25154 5.95824 4.26697 5.87096 4.26549C5.78369 4.26401 5.69761 4.24564 5.61788 4.21148C5.53815 4.17732 5.46639 4.12807 5.40688 4.06667L3.91621 2.63333L3.91621 9.875C3.91621 10.0408 3.84773 10.1997 3.72583 10.3169C3.60393 10.4342 3.4386 10.5 3.26621 10.5C3.09382 10.5 2.92849 10.4342 2.80659 10.3169C2.6847 10.1997 2.61621 10.0408 2.61621 9.875L2.61621 2.63333L1.12555 4.06667C1.06604 4.12807 0.99428 4.17732 0.914547 4.21148C0.834814 4.24564 0.748742 4.26401 0.661466 4.26549C0.57419 4.26697 0.487498 4.25154 0.406562 4.2201C0.325626 4.18867 0.252104 4.14188 0.190381 4.08253C0.128658 4.02318 0.0799988 3.95249 0.0473069 3.87466C0.0146159 3.79684 -0.00143924 3.71348 0.000100953 3.62956C0.00164019 3.54565 0.0207432 3.46288 0.0562695 3.38622C0.0917968 3.30955 0.143019 3.24055 0.20688 3.18333L2.80688 0.683333C2.92866 0.566089 3.09388 0.500145 3.26621 0.5Z" fill="#999999"/>
</svg>
