<svg width="9" height="11" viewBox="0 0 9 11" fill="none" xmlns="http://www.w3.org/2000/svg">
<path fill-rule="evenodd" clip-rule="evenodd" d="M1.3425 4.84777C1.3425 4.00456 1.67746 3.19588 2.27371 2.59963C2.86995 2.00339 3.67863 1.66843 4.52185 1.66843C5.36506 1.66843 6.17374 2.00339 6.76998 2.59963C7.36623 3.19588 7.70119 4.00456 7.70119 4.84777C7.70119 6.06343 7.19641 6.77951 6.60098 7.33582C6.34989 7.5706 6.10206 7.75973 5.83793 7.9606L5.59989 8.14321C5.42195 8.27861 5.25189 8.42406 5.09054 8.57886C4.93206 8.73538 4.74163 8.95386 4.61445 9.23756C4.60107 9.27084 4.57981 9.30038 4.5525 9.32364L4.54271 9.32886C4.54271 9.32886 4.53619 9.33147 4.52185 9.33147L4.50098 9.32951L4.49119 9.32364C4.46397 9.30057 4.44271 9.27126 4.42924 9.23821C4.31248 8.99119 4.15107 8.76787 3.95315 8.57951C3.7918 8.42471 3.62174 8.27926 3.4438 8.14386C3.3625 8.08082 3.28293 8.01995 3.20511 7.96125C2.94061 7.76551 2.68615 7.55655 2.44271 7.33516C1.84793 6.78016 1.3425 6.06408 1.3425 4.84777ZM8.76098 4.84777C8.76098 7.06516 7.41358 8.09234 6.4588 8.82016C6.04532 9.13647 5.70489 9.39538 5.58163 9.67125C5.40554 10.0652 5.03576 10.3913 4.52185 10.3913C4.00793 10.3913 3.6388 10.0652 3.46206 9.67125C3.33815 9.39538 2.99902 9.13647 2.58424 8.82016C1.63011 8.09234 0.282715 7.06451 0.282715 4.84777C0.282715 3.72349 0.729336 2.64525 1.52433 1.85026C2.31932 1.05526 3.39756 0.608643 4.52185 0.608643C5.64613 0.608643 6.72437 1.05526 7.51936 1.85026C8.31435 2.64525 8.76098 3.72349 8.76098 4.84777ZM5.50011 4.84777C5.50011 5.10722 5.39704 5.35605 5.21358 5.53951C5.03012 5.72297 4.7813 5.82603 4.52185 5.82603C4.26239 5.82603 4.01357 5.72297 3.83011 5.53951C3.64665 5.35605 3.54358 5.10722 3.54358 4.84777C3.54358 4.58832 3.64665 4.3395 3.83011 4.15604C4.01357 3.97258 4.26239 3.86951 4.52185 3.86951C4.7813 3.86951 5.03012 3.97258 5.21358 4.15604C5.39704 4.3395 5.50011 4.58832 5.50011 4.84777ZM6.47837 4.84777C6.47837 5.36667 6.27223 5.86432 5.90532 6.23124C5.5384 6.59816 5.04075 6.8043 4.52185 6.8043C4.00294 6.8043 3.50529 6.59816 3.13838 6.23124C2.77146 5.86432 2.56532 5.36667 2.56532 4.84777C2.56532 4.32887 2.77146 3.83122 3.13838 3.4643C3.50529 3.09738 4.00294 2.89125 4.52185 2.89125C5.04075 2.89125 5.5384 3.09738 5.90532 3.4643C6.27223 3.83122 6.47837 4.32887 6.47837 4.84777Z" fill="#999999"/>
<path fill-rule="evenodd" clip-rule="evenodd" d="M1.3425 4.84777C1.3425 4.00456 1.67746 3.19588 2.27371 2.59963C2.86995 2.00339 3.67863 1.66843 4.52185 1.66843C5.36506 1.66843 6.17374 2.00339 6.76998 2.59963C7.36623 3.19588 7.70119 4.00456 7.70119 4.84777C7.70119 6.06343 7.19641 6.77951 6.60098 7.33582C6.34989 7.5706 6.10206 7.75973 5.83793 7.9606L5.59989 8.14321C5.42195 8.27861 5.25189 8.42406 5.09054 8.57886C4.93206 8.73538 4.74163 8.95386 4.61445 9.23756C4.60107 9.27084 4.57981 9.30038 4.5525 9.32364L4.54271 9.32886C4.54271 9.32886 4.53619 9.33147 4.52185 9.33147L4.50098 9.32951L4.49119 9.32364C4.46397 9.30057 4.44271 9.27126 4.42924 9.23821C4.31248 8.99119 4.15107 8.76787 3.95315 8.57951C3.7918 8.42471 3.62174 8.27926 3.4438 8.14386C3.3625 8.08082 3.28293 8.01995 3.20511 7.96125C2.94061 7.76551 2.68615 7.55655 2.44271 7.33516C1.84793 6.78016 1.3425 6.06408 1.3425 4.84777ZM5.90532 6.23124C6.27223 5.86432 6.47837 5.36667 6.47837 4.84777C6.47837 4.32887 6.27223 3.83122 5.90532 3.4643C5.5384 3.09738 5.04075 2.89125 4.52185 2.89125C4.00294 2.89125 3.50529 3.09738 3.13838 3.4643C2.77146 3.83122 2.56532 4.32887 2.56532 4.84777C2.56532 5.36667 2.77146 5.86432 3.13838 6.23124C3.50529 6.59816 4.00294 6.8043 4.52185 6.8043C5.04075 6.8043 5.5384 6.59816 5.90532 6.23124Z" fill="#999999"/>
</svg>
