<svg width="40" height="40" viewBox="0 0 40 40" fill="none" xmlns="http://www.w3.org/2000/svg">
<path fill-rule="evenodd" clip-rule="evenodd" d="M15.2463 19.2282L16.1763 14.5842C16.3664 13.6443 16.8758 12.7991 17.6181 12.192C18.3604 11.5848 19.2898 11.2531 20.2488 11.2531C21.2077 11.2531 22.1372 11.5848 22.8795 12.192C23.6217 12.7991 24.1311 13.6443 24.3213 14.5842L25.2513 19.2282C25.5304 20.614 26.2112 21.8869 27.2088 22.8883L27.4998 23.1777C27.607 23.2851 27.6835 23.4191 27.7215 23.566C27.7594 23.7128 27.7574 23.8672 27.7156 24.013C27.6739 24.1588 27.5938 24.2908 27.4839 24.3953C27.3739 24.4998 27.238 24.573 27.0903 24.6073L25.8588 24.8922C22.1675 25.7458 18.3301 25.7458 14.6388 24.8922L13.4088 24.6073C13.2609 24.5732 13.1248 24.5001 13.0147 24.3957C12.9046 24.2913 12.8244 24.1593 12.7825 24.0135C12.7405 23.8676 12.7384 23.7132 12.7762 23.5663C12.8141 23.4193 12.8906 23.2852 12.9978 23.1777L13.2888 22.8883C14.2886 21.8885 14.9698 20.6149 15.2463 19.2282ZM13.0413 18.7872L13.9698 14.1432C14.2618 12.6931 15.0467 11.3887 16.1913 10.4516C17.3359 9.51447 18.7695 9.00244 20.2488 9.00244C21.7281 9.00244 23.1617 9.51447 24.3063 10.4516C25.4509 11.3887 26.2358 12.6931 26.5278 14.1432L27.4578 18.7872C27.6468 19.7382 28.1148 20.6113 28.8003 21.2968L29.0913 21.5878C29.4829 21.9789 29.7625 22.4679 29.9012 23.0037C30.0399 23.5395 30.0325 24.1027 29.8798 24.6348C29.7272 25.1668 29.4349 25.6482 29.0332 26.0291C28.6315 26.4099 28.1352 26.6762 27.5958 26.8003L26.3643 27.0853C25.3113 27.3253 24.2513 27.5043 23.1843 27.6223C23.0417 28.2949 22.6723 28.8981 22.1381 29.3309C21.6038 29.7638 20.9371 30 20.2495 30C19.562 30 18.8952 29.7638 18.361 29.3309C17.8268 28.8981 17.4574 28.2949 17.3148 27.6223C16.245 27.5063 15.1831 27.3265 14.1348 27.0838L12.9018 26.7988C12.363 26.6741 11.8673 26.4075 11.4662 26.0268C11.0651 25.646 10.7731 25.1649 10.6205 24.6333C10.468 24.1018 10.4604 23.539 10.5985 23.0035C10.7367 22.468 11.0156 21.9792 11.4063 21.5878L11.6988 21.2952C12.3843 20.6097 12.8523 19.7352 13.0413 18.7857" fill="#FFB800"/>
</svg>
