<svg width="360" height="36" viewBox="0 0 360 36" fill="none" xmlns="http://www.w3.org/2000/svg">
<rect x="0.5" y="0.5" width="359" height="35" rx="4.5" fill="white" stroke="#E2E2E2"/>
<path fill-rule="evenodd" clip-rule="evenodd" d="M16.125 17C16.125 15.7071 16.6386 14.4671 17.5529 13.5529C18.4671 12.6386 19.7071 12.125 21 12.125C22.2929 12.125 23.5329 12.6386 24.4471 13.5529C25.3614 14.4671 25.875 15.7071 25.875 17C25.875 18.864 25.101 19.962 24.188 20.815C23.803 21.175 23.423 21.465 23.018 21.773L22.653 22.053C22.3802 22.2606 22.1194 22.4836 21.872 22.721C21.629 22.961 21.337 23.296 21.142 23.731C21.1215 23.782 21.0889 23.8273 21.047 23.863L21.032 23.871C21.032 23.871 21.022 23.875 21 23.875L20.968 23.872L20.953 23.863C20.9113 23.8276 20.8787 23.7827 20.858 23.732C20.679 23.3532 20.4315 23.0108 20.128 22.722C19.8806 22.4846 19.6198 22.2616 19.347 22.054C19.2223 21.9573 19.1003 21.864 18.981 21.774C18.5754 21.4739 18.1853 21.1535 17.812 20.814C16.9 19.963 16.125 18.865 16.125 17ZM27.5 17C27.5 20.4 25.434 21.975 23.97 23.091C23.336 23.576 22.814 23.973 22.625 24.396C22.355 25 21.788 25.5 21 25.5C20.212 25.5 19.646 25 19.375 24.396C19.185 23.973 18.665 23.576 18.029 23.091C16.566 21.975 14.5 20.399 14.5 17C14.5 15.2761 15.1848 13.6228 16.4038 12.4038C17.6228 11.1848 19.2761 10.5 21 10.5C22.7239 10.5 24.3772 11.1848 25.5962 12.4038C26.8152 13.6228 27.5 15.2761 27.5 17ZM22.5 17C22.5 17.3978 22.342 17.7794 22.0607 18.0607C21.7794 18.342 21.3978 18.5 21 18.5C20.6022 18.5 20.2206 18.342 19.9393 18.0607C19.658 17.7794 19.5 17.3978 19.5 17C19.5 16.6022 19.658 16.2206 19.9393 15.9393C20.2206 15.658 20.6022 15.5 21 15.5C21.3978 15.5 21.7794 15.658 22.0607 15.9393C22.342 16.2206 22.5 16.6022 22.5 17ZM24 17C24 17.7956 23.6839 18.5587 23.1213 19.1213C22.5587 19.6839 21.7956 20 21 20C20.2044 20 19.4413 19.6839 18.8787 19.1213C18.3161 18.5587 18 17.7956 18 17C18 16.2044 18.3161 15.4413 18.8787 14.8787C19.4413 14.3161 20.2044 14 21 14C21.7956 14 22.5587 14.3161 23.1213 14.8787C23.6839 15.4413 24 16.2044 24 17Z" fill="#FFB800"/>
<path d="M42.2227 12.4609V20.5234H40.9219V18.4375H39.3516V17.3945H40.9219V16.2109H39.3516V15.1562H40.9219V12.4609H42.2227ZM33.375 14.6758V13.6328H35.7422V12.4492H37.043V13.6328H39.293V14.6758H33.375ZM33.9258 17.1719C33.9199 15.959 34.9453 15.1094 36.375 15.1094C37.8164 15.1094 38.8535 15.959 38.8594 17.1719C38.8535 18.3906 37.8164 19.2285 36.375 19.2344C34.9453 19.2285 33.9199 18.3906 33.9258 17.1719ZM35.1445 17.1719C35.1387 17.834 35.6484 18.2266 36.375 18.2266C37.1074 18.2266 37.623 17.834 37.6289 17.1719C37.623 16.5273 37.1074 16.1348 36.375 16.1289C35.6484 16.1348 35.1387 16.5273 35.1445 17.1719ZM35.2383 22.832V19.832H36.5625V21.7773H42.457V22.832H35.2383ZM50.0273 12.918C51.6387 12.9121 52.8047 13.8145 52.8047 15.1445C52.8047 16.4512 51.6387 17.3652 50.0273 17.3594C48.4336 17.3652 47.2734 16.4512 47.2734 15.1445C47.2734 13.8145 48.4336 12.9121 50.0273 12.918ZM46.582 18.0859C48.4922 18.0859 51.1699 18.0508 53.4492 17.7109L53.543 18.6719C52.6289 18.8477 51.6797 18.959 50.7539 19.0293V22.7148H49.4414V19.1055C48.4629 19.1465 47.543 19.1582 46.7461 19.1641L46.582 18.0859ZM48.5391 15.1445C48.5332 15.8535 49.1602 16.2988 50.0273 16.293C50.9297 16.2988 51.5625 15.8535 51.5625 15.1445C51.5625 14.4121 50.9297 13.9609 50.0273 13.9727C49.1602 13.9609 48.5332 14.4121 48.5391 15.1445ZM54.1406 23.0312V12.4609H55.4297V23.0312H54.1406ZM65.7422 12.4492V23.043H64.4414V12.4492H65.7422ZM57.0469 20.0312C58.7344 19.2871 59.707 17.5059 59.707 15.8125V15.2617H57.375V14.2188H59.707V12.6719H60.9961V14.2188H63.2812V15.2617H61.0078V15.8125C61.002 17.4238 61.9922 19.1523 63.7031 19.8672L62.9883 20.8633C61.7754 20.3477 60.8613 19.293 60.375 18.0156C59.9004 19.3691 58.9863 20.5 57.75 21.0391L57.0469 20.0312Z" fill="#999999"/>
</svg>
